Coordinates
version=1
nRows=17
nColumns=34
inDegrees=yes

Units are S.I. units (second, meters, Newtons, ...)
If the header above contains a line with 'inDegrees', this indicates whether rotational values are in degrees (yes) or radians (no).

endheader
time	pelvis_tilt	pelvis_list	pelvis_rotation	pelvis_tx	pelvis_ty	pelvis_tz	hip_flexion_r	hip_adduction_r	hip_rotation_r	knee_angle_r	ankle_angle_r	subtalar_angle_r	mtp_angle_r	hip_flexion_l	hip_adduction_l	hip_rotation_l	knee_angle_l	ankle_angle_l	subtalar_angle_l	mtp_angle_l	lumbar_extension	lumbar_bending	lumbar_rotation	arm_flex_r	arm_add_r	arm_rot_r	elbow_flex_r	pro_sup_r	arm_flex_l	arm_add_l	arm_rot_l	elbow_flex_l	pro_sup_l
      7.95000000	     11.97617903	     -9.94052502	      2.48772432	      0.08871741	      0.99116678	     -0.20010482	     29.74433077	      1.12861043	     -8.59385392	      5.23397637	      5.99852608	      5.74377048	      0.00000000	     -5.25822418	     -8.03189082	     -1.70410022	     15.73858696	      9.26032563	      0.48026072	      0.00000000	    -21.85945245	      7.76695672	      2.20805727	     86.72617217	     -0.30484205	     68.90534468	    123.89102301	    100.81027560	     94.46301914	      0.52468005	     82.96066174	    129.00129732	     91.62293229
      7.96666670	     11.84683930	     -9.97887404	      2.45443847	      0.08860633	      0.98868670	     -0.19995339	     30.04701210	      1.15524301	     -8.57680078	      5.41128923	      5.90115639	      5.71789709	      0.00000000	     -5.13941373	     -8.02252752	     -1.25836519	     15.63215048	      9.80934564	      0.52066399	      0.00000000	    -22.12244041	      7.68971120	      2.34333080	     87.27985488	     -0.07859855	     68.81373703	    123.78332718	    100.84887327	     95.08749358	      0.52802086	     82.73727619	    128.51056075	     91.64092358
      7.98333330	     11.72800418	    -10.00378469	      2.38475158	      0.08852609	      0.98727827	     -0.19929296	     30.12758836	      1.24192388	     -8.39827815	      5.21331968	      6.02247172	      5.75770524	      0.00000000	     -5.00374448	     -8.03808124	     -1.14003084	     15.59574131	     10.01286431	      0.44864848	      0.00000000	    -22.16904942	      7.62548569	      2.28452128	     87.57591552	      0.00258232	     68.89187252	    123.78612894	    100.88609660	     95.51055582	      0.12029140	     82.57073891	    127.64431181	     91.63288544
      8.00000000	     11.82452927	     -9.94322848	      2.60948049	      0.08913251	      0.98806056	     -0.19853658	     30.13479168	      1.12834492	     -8.31412248	      5.53476337	      6.43575994	      5.34195521	      0.00000000	     -4.92521101	     -7.99786502	     -0.61342528	     15.67991351	     10.99492858	      0.34530584	      0.00000000	    -22.37086376	      7.58915472	      2.64384783	     87.85207294	     -0.09587359	     69.25692970	    123.43270561	    100.94163710	     95.46337044	      0.81612103	     83.06191549	    127.01630286	     91.65911952
      8.01666670	     11.85227829	     -9.93700736	      2.94910092	      0.08863238	      0.98923672	     -0.19895776	     29.97255796	      1.01339288	     -8.14748285	      5.54800047	      6.26339398	      4.75534158	      0.00000000	     -4.88383599	     -8.00989959	      0.08353221	     15.78977010	     11.42374290	      0.40296882	      0.00000000	    -22.09215256	      7.65721660	      2.59111427	     87.66493260	     -0.76711554	     69.59268263	    122.59287583	    100.94548962	     95.41910169	      1.11322491	     84.56170112	    125.89534891	     91.70576719
      8.03333330	     11.86880536	     -9.81806136	      3.27227620	      0.08989455	      0.98904966	     -0.19904683	     29.75701811	      0.78492096	     -7.89808704	      5.40723870	      6.46027704	      4.63285576	      0.00000000	     -4.86545071	     -7.86603629	      0.66163492	     15.66439365	     11.54109491	      0.58269390	      0.00000000	    -21.98415941	      7.73433304	      2.64497185	     87.53965967	     -1.54873634	     69.57390188	    121.97138742	    100.91579300	     95.27030721	      1.17104823	     84.97884192	    125.97057795	     91.71203448
      8.05000000	     12.04935308	     -9.75348267	      3.66409979	      0.09259962	      0.98806973	     -0.19916392	     29.44151166	      0.63003440	     -7.66138899	      5.36551622	      6.80982964	      4.09191107	      0.00000000	     -5.19577261	     -7.85624895	      1.02408792	     15.39817754	     11.71223251	      0.18281476	      0.00000000	    -21.76487044	      7.78841019	      1.97863546	     86.91434715	     -1.63319183	     69.44563991	    121.75784754	    100.83573715	     94.94502478	      0.84359068	     84.92108648	    125.39328071	     91.65888122
      8.06666670	     11.94943222	     -9.61932770	      3.63249428	      0.08913260	      0.98546055	     -0.19769665	     29.64712706	      0.55360830	     -7.44818953	      5.33739378	      6.77551668	      3.99820104	      0.00000000	     -4.99774650	     -7.69271036	      1.51593023	     15.47764056	     12.44384466	      0.05820889	      0.00000000	    -21.92508739	      7.73370947	      1.96931094	     87.50823972	     -1.55171143	     69.14895792	    121.21828639	    100.76650531	     95.26679470	      0.83955178	     84.80711181	    124.36894534	     91.59456266
      8.08333330	     12.05353833	     -9.65480107	      3.76345994	      0.09022284	      0.98379708	     -0.19763401	     29.68204833	      0.58217312	     -7.47317172	      5.73914714	      6.82511731	      3.84095122	      0.00000000	     -4.93508814	     -7.84656618	      1.40292782	     15.76474599	     12.38605842	     -0.13598651	      0.00000000	    -21.96299337	      7.69849217	      2.11828914	     87.56852259	     -1.51282788	     69.14179742	    121.01891623	    100.74139175	     95.17863330	      1.01654453	     84.85277788	    124.14707860	     91.57147645
      8.10000000	     11.83115024	     -9.40683160	      3.56155038	      0.08767827	      0.98131304	     -0.19666417	     30.22883783	      0.43729441	     -6.96129940	      6.15759867	      6.78872035	      3.23278411	      0.00000000	     -4.45977390	     -7.51585092	      1.55297710	     16.31269082	     12.59088582	     -1.20466192	      0.00000000	    -21.41056005	      7.34275728	      1.16036349	     87.24423666	     -1.35149840	     68.88093211	    120.45874880	    100.49585412	     95.09158314	      0.31011406	     84.99785901	    123.74925375	     91.37818833
      8.11666670	     11.78782966	     -8.16559267	      3.09864568	      0.08656424	      0.98392288	     -0.19634664	     30.59055727	     -0.50647960	     -5.46083822	      6.52267459	      7.10820789	      2.72145594	      0.00000000	     -3.68517587	     -6.21844881	      1.80339108	     15.94748117	     20.24870372	     -1.18309175	      0.00000000	    -22.04847683	      5.61718423	      1.12741930	     87.86774354	     -1.05370105	     68.97556545	    120.14461295	    100.22008693	     95.83051006	      0.86834055	     85.21352784	    124.51063623	     91.22161529
      8.13333330	     11.48525277	     -7.63475321	      2.86691919	      0.08656410	      0.98259764	     -0.19570897	     30.80441550	     -0.84215333	     -5.27758411	      6.26430977	      7.10522156	      2.81389598	      0.00000000	     -3.37216286	     -5.76968513	      1.27074951	     15.63674437	     22.41102292	     -2.10536762	      0.00000000	    -22.13352936	      4.84799918	      1.30662459	     88.13739740	     -0.98561203	     68.88741486	    120.13236939	    100.18028737	     95.89398016	      0.95262526	     85.28067205	    124.16643806	     91.17048092
      8.15000000	     11.51745251	     -7.28899857	      2.40147204	      0.08640037	      0.97959558	     -0.19534356	     31.05683257	     -0.91866823	     -4.85846202	      6.58734475	      7.05560141	      3.02154723	      0.00000000	     -2.99240751	     -5.24122302	      1.14889490	     15.97392387	     25.46179782	     -2.66227656	      0.00000000	    -22.32868251	      4.33849053	      1.51988837	     88.25756673	     -1.03903652	     68.95706615	    120.13789244	    100.16196531	     96.07741402	      0.93790935	     85.17665412	    123.93632947	     91.10591479
      8.16666670	     11.07953377	     -7.15914330	      1.95358007	      0.08928381	      0.97816446	     -0.19379469	     31.67954128	     -0.72937977	     -4.74245505	      6.84302398	      7.00276949	      2.63783888	      0.00000000	     -2.44184683	     -5.13700338	      0.73282173	     16.41394397	     27.98744745	     -2.67566682	      0.00000000	    -21.52323456	      3.86503291	      1.98140972	     87.72568426	     -1.31698636	     68.91104140	    120.81974127	    100.14304113	     95.35523084	      1.35892404	     85.06017196	    126.36514654	     91.07982533
      8.18333330	     11.11754851	     -6.99470605	      1.49137931	      0.08760207	      0.97790638	     -0.19409726	     31.69495541	     -0.64132211	     -4.58678262	      6.83203421	      7.01058807	      2.70951181	      0.00000000	     -2.34572563	     -4.80558410	      0.61925821	     16.90511105	     29.76592405	     -3.33660724	      0.00000000	    -21.64429425	      3.66684795	      1.80428054	     87.69659347	     -1.10701608	     68.92401339	    120.87273268	    100.14126253	     95.17690682	      1.25034347	     85.18540489	    126.35106638	     91.08447633
      8.20000000	     10.70046277	     -7.47727841	      1.30045859	      0.09213217	      0.97450391	     -0.19404061	     31.97970589	     -0.01854057	     -4.54656975	      6.72412565	      6.96516586	      2.88970758	      0.00000000	     -2.20970696	     -5.29942826	      0.17192331	     17.41350614	     29.39434929	     -2.90818864	      0.00000000	    -20.86541603	      4.45336031	      0.54915205	     87.01842354	     -0.13221715	     67.84759119	    120.94476763	    100.12151528	     94.62278124	      0.39890769	     83.78010604	    127.32406245	     91.02967491
      8.21666670	     10.83330946	     -8.22362917	      1.39687185	      0.09135024	      0.97880946	     -0.19375186	     31.48191073	      0.76956925	     -5.13506351	      6.41952017	      6.43452880	      3.14215586	      0.00000000	     -2.63036840	     -6.04346939	     -0.38590979	     17.87341264	     27.58853151	     -2.93291006	      0.00000000	    -20.82403176	      5.70473833	      0.50883107	     86.57830991	      0.06367574	     67.82622142	    120.62020548	    100.14152311	     93.81143868	      0.57796584	     82.97549855	    127.99167230	     91.00103101
